 <svg  version="1.0" xmlns="http://www.w3.org/2000/svg"  width="300.000000pt" height="300.000000pt" viewBox="0 0 300.000000 300.000000"  preserveAspectRatio="xMidYMid meet">  <g transform="translate(0.000000,300.000000) scale(0.050000,-0.050000)" fill="#0a8270" stroke="none"> <path d="M1083 5869 c-223 -48 -723 -334 -723 -414 0 -10 59 -117 131 -236 l130 -217 -67 -96 c-37 -53 -159 -293 -270 -534 l-203 -437 162 -273 c90 -149 173 -282 185 -295 16 -17 122 40 412 224 515 325 478 331 522 -87 28 -266 21 -283 -99 -247 -260 78 -483 -68 -499 -327 -5 -70 2 -143 14 -167 40 -74 -64 -231 -173 -260 -166 -44 -345 -315 -345 -521 0 -14 69 -22 200 -22 l200 0 0 -280 0 -280 -280 0 -280 0 0 -650 0 -650 2900 0 2900 0 0 650 0 650 -560 0 -560 0 0 145 c-1 80 -9 180 -19 224 -17 72 -13 85 43 148 83 95 156 257 156 348 l0 75 -90 0 c-80 0 -90 -5 -90 -45 -1 -130 -144 -320 -281 -372 -82 -31 -770 -131 -806 -117 -81 31 -191 274 -221 487 l-12 83 155 79 c180 91 233 156 253 307 28 209 105 304 269 330 l83 13 0 -103 c0 -184 56 -277 248 -407 l118 -81 69 37 c182 98 305 251 305 380 0 109 38 79 130 -102 123 -244 210 -289 554 -289 l256 0 0 90 0 90 -227 0 c-282 0 -332 25 -425 218 -68 141 -164 254 -247 289 -30 13 -85 58 -122 101 -153 175 -457 176 -571 2 -27 -41 -49 -50 -123 -50 -256 0 -436 -149 -486 -404 -11 -58 -25 -125 -30 -148 -9 -45 -112 -101 -146 -80 -24 15 -63 189 -63 283 0 38 -18 115 -39 172 l-40 103 91 80 c98 87 157 185 179 301 l14 75 -95 -6 c-90 -6 -95 -9 -121 -86 -38 -113 -120 -177 -302 -238 -180 -61 -205 -79 -347 -251 -118 -141 -207 -189 -311 -169 -90 16 -91 15 66 173 l134 135 -64 65 -65 64 -135 -134 c-170 -169 -165 -170 -165 42 l0 176 85 62 c206 149 279 267 312 499 37 272 141 386 365 402 l119 9 121 167 121 166 104 -41 c56 -23 119 -46 138 -52 61 -17 38 -44 -58 -68 -90 -22 -267 -162 -267 -211 0 -44 162 -98 183 -60 31 56 128 94 237 94 l102 0 -35 -60 c-35 -59 -134 -120 -195 -120 -25 0 -32 -21 -32 -92 l0 -92 85 7 c81 7 90 1 194 -109 75 -80 154 -138 258 -190 l151 -74 826 -6 826 -6 0 91 0 91 -754 0 c-848 0 -906 7 -1076 137 -168 127 -184 162 -125 266 28 48 61 132 73 187 13 55 29 116 34 135 9 30 -4 35 -101 35 l-111 0 0 116 c0 571 -495 895 -561 367 -28 -225 -170 -466 -290 -492 l-61 -12 -137 295 c-374 810 -968 1156 -1708 995z m177 -185 c0 -9 -26 -92 -57 -185 l-57 -169 -73 145 c-90 177 -90 177 2 201 94 25 185 29 185 8z m568 -45 l109 -41 -71 -120 c-81 -135 -85 -134 -133 26 -19 63 -43 120 -54 126 -88 55 11 61 149 9z m-290 -149 c23 -49 47 -137 54 -195 12 -103 17 -110 103 -155 245 -130 353 -294 575 -876 180 -472 181 -447 -22 -607 -159 -125 -188 -185 -188 -384 0 -547 545 -756 870 -333 217 283 324 247 356 -120 7 -71 26 -163 43 -204 29 -71 29 -76 -9 -96 -128 -69 18 -622 224 -843 l86 -92 410 66 c226 36 438 72 473 80 l64 13 13 -107 c7 -60 10 -135 7 -168 l-7 -59 -587 -5 c-553 -5 -591 -3 -650 33 -158 98 -234 242 -254 481 -52 632 -746 846 -1053 326 -86 -147 -132 -107 -234 205 -18 55 -41 113 -51 129 -12 19 -3 47 29 90 149 195 88 460 -132 572 -86 44 -87 46 -117 322 -31 288 -36 270 84 305 147 43 388 276 331 321 -11 9 -142 51 -158 51 -10 0 -30 -26 -47 -58 -53 -103 -137 -136 -365 -147 l-204 -9 -176 -110 c-97 -61 -250 -157 -341 -214 l-165 -102 -48 77 c-26 42 -73 121 -102 175 l-54 98 175 380 c264 575 383 712 694 807 l125 37 77 224 c86 246 96 252 171 92z m-648 -70 c38 -76 70 -142 70 -147 0 -4 -45 -35 -100 -69 l-100 -63 -47 75 c-89 143 -121 203 -112 211 42 36 189 133 202 133 9 0 48 -63 87 -140z m1375 -58 c117 -111 119 -95 -27 -219 l-122 -103 -96 85 -96 85 42 70 c154 257 123 249 299 82z m1303 -307 c27 -58 56 -130 63 -160 l14 -56 -98 36 -97 36 7 110 c12 177 38 185 111 34z m-1012 -124 c36 -75 63 -138 60 -141 -3 -3 -69 -37 -147 -76 l-141 -71 -53 121 -53 120 63 53 c35 29 86 73 114 97 69 61 81 53 157 -103z m184 -400 c0 -11 -30 -45 -66 -74 -36 -29 -88 -94 -115 -145 -27 -50 -55 -92 -62 -92 -15 0 -106 238 -95 248 123 112 338 152 338 63z m1982 -1309 c111 -112 79 -341 -63 -442 l-59 -43 -71 43 c-90 56 -129 134 -128 254 1 216 185 324 321 188z m-3467 -187 c38 -36 53 -39 81 -20 185 131 344 78 344 -115 0 -121 -38 -134 -183 -62 -142 71 -325 84 -450 32 -99 -41 -107 -39 -107 31 0 173 188 253 315 134z m160 -364 c119 -56 164 -117 228 -311 23 -71 60 -164 80 -205 l38 -76 -52 -69 c-45 -58 -128 -306 -129 -385 0 -19 57 -25 220 -25 234 0 437 -66 497 -163 23 -36 0 -37 -718 -37 l-741 0 6 515 6 515 55 93 c105 178 314 239 510 148z m1271 -363 c148 -75 203 -173 220 -388 16 -192 38 -265 122 -406 l69 -114 -286 0 -286 0 -25 61 c-43 102 -99 158 -222 220 l-118 60 0 150 c0 345 261 551 526 417z m-2026 -68 c0 -80 0 -80 -80 -80 -96 0 -99 18 -18 98 80 81 98 78 98 -18z m1300 -370 c0 -90 0 -90 -70 -90 -87 0 -96 56 -21 131 71 70 91 61 91 -41z m-1500 -1120 l0 -470 -90 0 -90 0 0 470 0 470 90 0 90 0 0 -470z m576 285 l-6 -185 -185 -6 -185 -6 0 191 0 191 191 0 191 0 -6 -185z m364 -285 l0 -470 -90 0 -90 0 0 470 0 470 90 0 90 0 0 -470z m560 280 l0 -190 -180 0 -180 0 0 190 0 190 180 0 180 0 0 -190z m380 -280 l0 -470 -90 0 -90 0 0 470 0 470 90 0 90 0 0 -470z m560 280 l0 -190 -180 0 -180 0 0 190 0 190 180 0 180 0 0 -190z m380 -280 l0 -470 -90 0 -90 0 0 470 0 470 90 0 90 0 0 -470z m560 279 l0 -191 -185 6 -185 6 -6 185 -6 185 191 0 191 0 0 -191z m380 -279 l0 -470 -90 0 -90 0 0 470 0 470 90 0 90 0 0 -470z m560 280 l0 -190 -190 0 -190 0 0 190 0 190 190 0 190 0 0 -190z m380 -280 l0 -470 -100 0 -100 0 0 470 0 470 100 0 100 0 0 -470z m560 280 l0 -190 -190 0 -190 0 0 190 0 190 190 0 190 0 0 -190z m-4684 -565 l6 -185 -191 0 -191 0 0 191 0 191 185 -6 185 -6 6 -185z m924 5 l0 -190 -180 0 -180 0 0 190 0 190 180 0 180 0 0 -190z m940 0 l0 -190 -180 0 -180 0 0 190 0 190 180 0 180 0 0 -190z m940 0 l0 -190 -190 0 -190 0 0 177 c0 215 -12 203 203 203 l177 0 0 -190z m940 0 l0 -190 -190 0 -190 0 0 190 0 190 190 0 190 0 0 -190z m940 0 l0 -190 -190 0 -190 0 0 190 0 190 190 0 190 0 0 -190z"/> <path d="M1064 4756 c-31 -31 -31 -101 0 -132 53 -53 156 -15 156 59 0 76 -104 125 -156 73z"/> <path d="M1085 2519 c-66 -26 -63 -132 5 -163 41 -18 57 -16 91 15 77 70 2 186 -96 148z"/> <path d="M1040 1780 l0 -180 90 0 90 0 0 180 0 180 -90 0 -90 0 0 -180z"/> <path d="M2371 2121 c-41 -45 -27 -111 30 -142 88 -47 169 71 98 142 -49 49 -84 49 -128 0z"/> <path d="M2940 4000 c-48 -48 -49 -58 -9 -116 50 -70 169 -28 169 60 0 23 -76 96 -100 96 -11 0 -38 -18 -60 -40z"/> <path d="M4061 2691 c-13 -16 -21 -54 -17 -85 11 -97 176 -83 176 15 0 81 -110 129 -159 70z"/> </g> </svg> 